<?xml version="1.0" encoding="UTF-8" standalone="no"?>
<!-- Created with Inkscape (http://www.inkscape.org/) -->

<svg
   width="210mm"
   height="297mm"
   viewBox="0 0 210 297"
   version="1.1"
   id="svg1"
   xml:space="preserve"
   inkscape:version="1.4.2 (f4327f4, 2025-05-13)"
   sodipodi:docname="folder.svg"
   xmlns:inkscape="http://www.inkscape.org/namespaces/inkscape"
   xmlns:sodipodi="http://sodipodi.sourceforge.net/DTD/sodipodi-0.dtd"
   xmlns="http://www.w3.org/2000/svg"
   xmlns:svg="http://www.w3.org/2000/svg"><sodipodi:namedview
     id="namedview1"
     pagecolor="#ffffff"
     bordercolor="#000000"
     borderopacity="0.25"
     inkscape:showpageshadow="2"
     inkscape:pageopacity="0.0"
     inkscape:pagecheckerboard="0"
     inkscape:deskcolor="#d1d1d1"
     inkscape:document-units="mm"
     inkscape:zoom="0.68150253"
     inkscape:cx="322.08245"
     inkscape:cy="528.97823"
     inkscape:window-width="1760"
     inkscape:window-height="967"
     inkscape:window-x="-8"
     inkscape:window-y="-8"
     inkscape:window-maximized="1"
     inkscape:current-layer="layer1" /><defs
     id="defs1" /><g
     inkscape:label="Layer 1"
     inkscape:groupmode="layer"
     id="layer1"><path
       id="rect1"
       style="fill:#111311;fill-opacity:0.439776;stroke-width:0.284371"
       d="m 50.724959,68.329632 c -7.453714,0 -13.454101,5.785261 -13.454101,12.971818 v 11.80238 c -1.82e-4,0.02425 0,0.04858 0,0.07286 v 65.06321 1.71308 c 0,6.23739 6.000387,11.25874 13.454101,11.25874 H 153.87527 c 7.45371,0 13.45409,-5.02135 13.45409,-11.25874 V 158.2399 99.776292 93.17669 c 0,-6.237389 -6.00038,-11.259261 -13.45409,-11.259261 H 96.96604 L 82.967525,68.329632 Z" /><path
       id="path2"
       style="fill:#111311;fill-opacity:0.439776;stroke-width:0.273017"
       d="M 50.724944,88.905879 H 153.87504 c 7.45371,0 13.45436,4.628454 13.45436,10.3777 v 61.550491 c 0,5.74925 -6.00065,10.3777 -13.45436,10.3777 H 50.724944 c -7.453714,0 -13.454359,-4.62845 -13.454359,-10.3777 V 99.283579 c 0,-5.749246 6.000645,-10.3777 13.454359,-10.3777 z" /></g></svg>
